<svg width="15" height="18" viewBox="0 0 15 18" fill="none" xmlns="http://www.w3.org/2000/svg">
<path d="M15 2.8125V4.5C15 6.05391 11.6417 7.3125 7.5 7.3125C3.35826 7.3125 0 6.05391 0 4.5V2.8125C0 1.25859 3.35826 0 7.5 0C11.6417 0 15 1.25859 15 2.8125ZM13.1652 7.54805C13.8616 7.28789 14.5011 6.95391 15 6.54258V10.125C15 11.6789 11.6417 12.9375 7.5 12.9375C3.35826 12.9375 0 11.6789 0 10.125V6.54258C0.498884 6.95742 1.13839 7.28789 1.83482 7.54805C3.33817 8.11055 5.3404 8.4375 7.5 8.4375C9.6596 8.4375 11.6618 8.11055 13.1652 7.54805ZM0 12.1676C0.498884 12.5824 1.13839 12.9129 1.83482 13.173C3.33817 13.7355 5.3404 14.0625 7.5 14.0625C9.6596 14.0625 11.6618 13.7355 13.1652 13.173C13.8616 12.9129 14.5011 12.5789 15 12.1676V15.1875C15 16.7414 11.6417 18 7.5 18C3.35826 18 0 16.7414 0 15.1875V12.1676Z" fill="black"/>
</svg>
