<svg width="19" height="15" viewBox="0 0 19 15" fill="none" xmlns="http://www.w3.org/2000/svg">
<path d="M1.78125 0C0.797852 0 0 0.839844 0 1.875C0 2.46484 0.263477 3.01953 0.7125 3.375L8.7875 9.75C9.21055 10.082 9.78945 10.082 10.2125 9.75L18.2875 3.375C18.7365 3.01953 19 2.46484 19 1.875C19 0.839844 18.2021 0 17.2188 0H1.78125ZM0 4.375V12.5C0 13.8789 1.06504 15 2.375 15H16.625C17.935 15 19 13.8789 19 12.5V4.375L10.925 10.75C10.0789 11.418 8.92109 11.418 8.075 10.75L0 4.375Z" fill="black"/>
</svg>
