<svg width="19" height="11" viewBox="0 0 19 11" fill="none" xmlns="http://www.w3.org/2000/svg">
<path d="M9.5 0.54902C14.5884 0.54902 18.5012 2.9085 18.5012 5.5C18.5012 8.0915 14.5855 10.451 9.5 10.451C4.41156 10.451 0.49875 8.0915 0.49875 5.5C0.49875 2.9085 4.41453 0.54902 9.5 0.54902ZM9.5 0C4.25422 0 0 2.46078 0 5.5C0 8.53922 4.25422 11 9.5 11C14.7458 11 19 8.53922 19 5.5C19 2.46078 14.7458 0 9.5 0ZM6.47781 5.05882C6.24328 6.38235 5.415 6.2451 4.39672 6.2451L4.80344 3.93791C5.93156 3.93791 6.6975 3.80392 6.47781 5.05882ZM2.89156 8.5817H3.98109L4.23938 7.11765C5.45953 7.11765 6.21656 7.21569 6.91719 6.49346C7.69203 5.70915 7.89391 4.31373 7.34172 3.61438C7.05375 3.24837 6.59062 3.06863 5.96125 3.06863H3.86234L2.89156 8.5817ZM8.40453 1.60131H9.48812L9.22984 3.06536C10.165 3.06536 11.0319 2.9902 11.4505 3.41503C11.8898 3.85948 11.6791 4.4281 11.2041 7.11111H10.1056C10.5628 4.51634 10.6489 4.30065 10.4827 4.10458C10.3223 3.91503 9.95719 3.95425 9.07547 3.95425L8.51734 7.11111H7.43375L8.40453 1.60131ZM14.9922 5.05882C14.7547 6.40196 13.9027 6.2451 12.9111 6.2451L13.3178 3.93791C14.4519 3.93791 15.2119 3.80392 14.9922 5.05882ZM11.4059 8.5817H12.4984L12.7567 7.11765C14.0392 7.11765 14.7488 7.19935 15.4345 6.49346C16.2094 5.70915 16.4112 4.31373 15.8591 3.61438C15.5711 3.24837 15.108 3.06863 14.4786 3.06863H12.3797L11.4059 8.5817Z" fill="black"/>
</svg>
